<?xml version="1.0" encoding="UTF-8" standalone="no"?>
<!-- Created with Inkscape (http://www.inkscape.org/) -->

<svg
   xmlns:dc="http://purl.org/dc/elements/1.1/"
   xmlns:cc="http://creativecommons.org/ns#"
   xmlns:rdf="http://www.w3.org/1999/02/22-rdf-syntax-ns#"
   xmlns:svg="http://www.w3.org/2000/svg"
   xmlns="http://www.w3.org/2000/svg"
   xmlns:sodipodi="http://sodipodi.sourceforge.net/DTD/sodipodi-0.dtd"
   xmlns:inkscape="http://www.inkscape.org/namespaces/inkscape"
   width="50.000008"
   height="50.000008"
   viewBox="0 0 50.000006 50.000006"
   id="svg2"
   version="1.1"
   inkscape:version="0.91 r13725"
   sodipodi:docname="cash.svg">
  <defs
     id="defs4" />
  <sodipodi:namedview
     id="base"
     pagecolor="#ffffff"
     bordercolor="#666666"
     borderopacity="1.0"
     inkscape:pageopacity="0.0"
     inkscape:pageshadow="2"
     inkscape:zoom="7.3892443"
     inkscape:cx="31.68324"
     inkscape:cy="28.249872"
     inkscape:document-units="px"
     inkscape:current-layer="g3474"
     showgrid="false"
     fit-margin-top="0"
     fit-margin-left="0"
     fit-margin-right="0"
     fit-margin-bottom="0"
     units="px"
     inkscape:window-width="1366"
     inkscape:window-height="744"
     inkscape:window-x="0"
     inkscape:window-y="24"
     inkscape:window-maximized="1" />
  <metadata
     id="metadata7">
    <rdf:RDF>
      <cc:Work
         rdf:about="">
        <dc:format>image/svg+xml</dc:format>
        <dc:type
           rdf:resource="http://purl.org/dc/dcmitype/StillImage" />
        <dc:title />
      </cc:Work>
    </rdf:RDF>
  </metadata>
  <g
     inkscape:label="Cash"
     inkscape:groupmode="layer"
     id="g3474"
     style="display:inline"
     transform="translate(0,-1002.3622)">
    <path
       style="fill:#000000"
       d="m 9.2903442,1038.6611 c -0.782122,-0.4707 -0.913364,-2.3208 -0.214218,-3.02 0.271488,-0.2715 1.5727188,-0.4674 3.1045258,-0.4674 2.344403,0 2.835437,0.1398 4.423861,1.2594 1.54399,1.0883 2.176362,1.2791 4.65453,1.4043 2.567408,0.1296 3.08203,0.028 4.913275,-0.9673 8.775027,-4.7709 4.90589,-17.9242 -5.060501,-17.2033 -1.743252,0.1261 -2.824158,0.4788 -4.323684,1.411 -1.963858,1.2208 -2.083914,1.2428 -6.764182,1.2428 -4.9901748,0 -5.7049308,-0.2175 -5.6936208,-1.7332 0.01465,-1.9673 -0.06503,-1.9535 12.5404048,-2.1616 10.139666,-0.1674 11.796608,-0.2768 11.796608,-0.779 0,-0.4701 -0.718651,-0.6063 -3.679036,-0.6972 -2.023496,-0.062 -3.907649,-0.3027 -4.18699,-0.5346 -0.637232,-0.5288 -0.663873,-2.7408 -0.04057,-3.3642 0.32153,-0.3215 2.271148,-0.4673 6.247316,-0.4673 4.905922,0 5.998855,0.1116 7.227672,0.7385 1.634476,0.8339 4.916671,4.1735 6.260029,6.3696 l 0.893453,1.4606 2.706875,0 c 2.215031,0 2.756138,0.1238 2.97799,0.6816 0.563852,1.4175 0.289996,8.8071 -0.411361,11.1004 l -0.684937,2.2395 -2.427099,0 c -1.962736,0 -2.515528,0.1416 -2.88928,0.7401 -0.254195,0.407 -1.479429,1.2395 -2.722735,1.85 l -2.260554,1.1101 -12.853085,0.099 c -8.483472,0.065 -13.0848148,-0.041 -13.5346878,-0.3115 z m 12.0497748,-3.7389 c -0.147289,-0.1473 -0.267781,-0.5773 -0.267781,-0.9556 0,-0.3783 -0.355212,-0.8006 -0.78935,-0.9383 -1.009427,-0.3204 -2.090457,-1.9564 -1.797376,-2.7202 0.323742,-0.8436 1.455437,-0.7239 1.691528,0.1789 0.256065,0.9792 1.412406,1.3488 2.462091,0.7871 1.183668,-0.6335 0.770499,-1.2441 -1.164225,-1.7205 -2.232791,-0.5499 -3.465379,-2.0955 -2.812972,-3.5273 0.248275,-0.5449 0.883109,-1.1874 1.410755,-1.4278 0.527646,-0.2404 1.012231,-0.8057 1.076824,-1.2561 0.06462,-0.4505 0.424198,-0.8775 0.799072,-0.949 0.50758,-0.097 0.681603,0.1285 0.681603,0.882 0,0.7239 0.280151,1.1185 0.984188,1.3861 1.015035,0.386 1.780799,1.7679 1.454626,2.6251 -0.282892,0.7436 -0.89445,0.5859 -1.888702,-0.4869 -1.037158,-1.1191 -1.300265,-1.1707 -2.28788,-0.4485 -0.978019,0.7151 -0.522723,1.2726 1.273935,1.5599 2.971883,0.4753 3.998416,3.4956 1.646784,4.8453 -0.634677,0.3642 -1.204326,0.9996 -1.265834,1.4119 -0.118903,0.7969 -0.762429,1.1987 -1.207286,0.7539 z m -16.4036838,-1.9185 c -0.726409,-0.7264 -0.800069,-2.16 -0.144671,-2.8154 0.295356,-0.2954 1.777932,-0.4674 4.027954,-0.4674 l 3.5606008,0 0.476452,1.4606 c 0.262047,0.8033 0.567281,1.6796 0.678331,1.9474 0.329725,0.7951 -7.7966968,0.6768 -8.5986668,-0.1252 z m -1.87789,-5.2614 c -0.793277,-0.4621 -0.932994,-2.6775 -0.214218,-3.3963 0.679422,-0.6794 10.9757558,-0.6607 10.6833278,0.02 -0.115163,0.2677 -0.429028,1.2317 -0.697494,2.1422 l -0.488105,1.6553 -4.3009388,-0.012 c -2.365528,-0.01 -4.607698,-0.1905 -4.982572,-0.4089 z"
       id="path3476"
       inkscape:connector-curvature="0"
       sodipodi:nodetypes="scssssssscssscsssscssscssscsscssccsssscssscccssccscscscscccscsc" />
  </g>
</svg>
