<?xml version="1.0" encoding="UTF-8" standalone="no"?>
<!-- Created with Inkscape (http://www.inkscape.org/) -->

<svg
   xmlns:dc="http://purl.org/dc/elements/1.1/"
   xmlns:cc="http://creativecommons.org/ns#"
   xmlns:rdf="http://www.w3.org/1999/02/22-rdf-syntax-ns#"
   xmlns:svg="http://www.w3.org/2000/svg"
   xmlns="http://www.w3.org/2000/svg"
   xmlns:sodipodi="http://sodipodi.sourceforge.net/DTD/sodipodi-0.dtd"
   xmlns:inkscape="http://www.inkscape.org/namespaces/inkscape"
   width="50.000008"
   height="50.000008"
   viewBox="0 0 50.000006 50.000006"
   id="svg2"
   version="1.1"
   inkscape:version="0.91 r13725"
   sodipodi:docname="changeline.svg">
  <defs
     id="defs4" />
  <sodipodi:namedview
     id="base"
     pagecolor="#ffffff"
     bordercolor="#666666"
     borderopacity="1.0"
     inkscape:pageopacity="0.0"
     inkscape:pageshadow="2"
     inkscape:zoom="7.3892443"
     inkscape:cx="22.819005"
     inkscape:cy="28.249872"
     inkscape:document-units="px"
     inkscape:current-layer="g3490"
     showgrid="false"
     fit-margin-top="0"
     fit-margin-left="0"
     fit-margin-right="0"
     fit-margin-bottom="0"
     units="px"
     inkscape:window-width="1366"
     inkscape:window-height="744"
     inkscape:window-x="0"
     inkscape:window-y="24"
     inkscape:window-maximized="1" />
  <metadata
     id="metadata7">
    <rdf:RDF>
      <cc:Work
         rdf:about="">
        <dc:format>image/svg+xml</dc:format>
        <dc:type
           rdf:resource="http://purl.org/dc/dcmitype/StillImage" />
        <dc:title />
      </cc:Work>
    </rdf:RDF>
  </metadata>
  <g
     inkscape:label="Changeline"
     inkscape:groupmode="layer"
     id="g3490"
     style="display:inline"
     transform="translate(0,-1002.3622)">
    <path
       style="fill:#000000"
       d="m 15.171009,1035.3494 -4.478,-2.2669 -3.38193,1.7766 c -3.64908,1.9169 -4.31859,1.9743 -4.50881,0.3863 -0.0839,-0.7009 0.17628,-0.8878 3.67941,-2.6432 2.07335,-1.039 3.96551,-1.8891 4.20481,-1.8891 0.23931,0 2.4337,0.9969 4.87646,2.2153 l 4.44134,2.2152 2.2048,-1.1319 c 1.61612,-0.8296 2.07007,-1.1796 1.70023,-1.3109 -0.27751,-0.099 -1.02459,-0.3445 -1.66018,-0.5465 -2.8603,-0.9092 -5.01113,-3.2703 -5.80621,-6.3739 -1.06747,-4.1667 0.89081,-8.1805 4.9395,-10.1243 5.80356,-2.7863 12.56633,1.4669 12.56707,7.9036 1.6e-4,1.248 -0.20716,2.4927 -0.57744,3.4668 -0.3177,0.8359 -0.57771,1.5534 -0.57781,1.5943 -2e-4,0.1124 6.81449,-3.3153 8.93613,-4.4947 l 1.85813,-1.0329 -1.72001,-0.5958 c -2.13872,-0.7408 -2.42961,-0.931 -2.42961,-1.5886 0,-1.1581 0.72952,-1.2984 3.11168,-0.5984 1.22816,0.3609 2.91556,0.9084 3.74978,1.2167 1.88573,0.6968 1.90757,0.9339 0.48064,5.2163 -1.03432,3.104 -1.59218,3.8736 -2.54328,3.5087 -0.73855,-0.2835 -0.78842,-1.0823 -0.17828,-2.8558 0.31966,-0.9291 0.5231,-1.7475 0.45205,-1.8185 -0.0711,-0.071 -5.53798,2.6154 -12.14871,5.9699 -6.61073,3.3546 -12.17573,6.0923 -12.36663,6.0839 -0.19093,-0.01 -2.36222,-1.0353 -4.82513,-2.2822 z m 13.28514,-6.5965 c -0.002,-0.2725 -0.12647,-0.6884 -0.27561,-0.9243 -0.19285,-0.305 -0.0915,-0.6202 0.35109,-1.0913 0.86267,-0.9183 0.82458,-2.4366 -0.0855,-3.4108 -0.6403,-0.6854 -0.85936,-0.7438 -2.29678,-0.6121 -0.87392,0.08 -1.87991,0.2371 -2.23549,0.3491 -0.87584,0.276 -1.19035,-0.5536 -0.49936,-1.3171 0.61273,-0.6771 1.77899,-0.7373 2.45364,-0.1267 0.64012,0.5793 1.43682,0.2495 1.43682,-0.5947 0,-0.8701 -1.27647,-1.868 -2.38928,-1.868 -0.56172,0 -1.11112,-0.2635 -1.56074,-0.7487 -0.5828,-0.6289 -0.76555,-0.6893 -1.14143,-0.3773 -0.29842,0.2477 -0.39325,0.6427 -0.28465,1.1857 0.10745,0.5372 -0.0312,1.1327 -0.40737,1.7496 -0.79574,1.3051 -0.7147,2.1375 0.30757,3.1598 0.80105,0.801 1.00185,0.8649 2.23901,0.7121 0.74745,-0.092 1.71493,-0.2532 2.14992,-0.3574 1.10444,-0.2647 1.44514,0.6212 0.52534,1.366 -0.81186,0.6574 -1.6846,0.6811 -2.36612,0.064 -0.57856,-0.5236 -1.32652,-0.3632 -1.59735,0.3425 -0.26774,0.6977 1.0553,1.8483 2.37085,2.0618 0.68775,0.1116 1.34611,0.4503 1.66605,0.857 0.42594,0.5415 0.63755,0.6144 1.08639,0.3741 0.30659,-0.164 0.55544,-0.5212 0.55301,-0.7937 z"
       id="path3492"
       inkscape:connector-curvature="0"
       sodipodi:nodetypes="scscssscsccsscccsccscsccccscsccsscsccsscccccscscccccc" />
  </g>
</svg>
