<?xml version="1.0" encoding="UTF-8" standalone="no"?>
<!-- Created with Inkscape (http://www.inkscape.org/) -->

<svg
   xmlns:dc="http://purl.org/dc/elements/1.1/"
   xmlns:cc="http://creativecommons.org/ns#"
   xmlns:rdf="http://www.w3.org/1999/02/22-rdf-syntax-ns#"
   xmlns:svg="http://www.w3.org/2000/svg"
   xmlns="http://www.w3.org/2000/svg"
   xmlns:sodipodi="http://sodipodi.sourceforge.net/DTD/sodipodi-0.dtd"
   xmlns:inkscape="http://www.inkscape.org/namespaces/inkscape"
   width="50.000008"
   height="50.000008"
   viewBox="0 0 50.000006 50.000006"
   id="svg2"
   version="1.1"
   inkscape:version="0.91 r13725"
   sodipodi:docname="creditcard.svg">
  <defs
     id="defs4" />
  <sodipodi:namedview
     id="base"
     pagecolor="#ffffff"
     bordercolor="#666666"
     borderopacity="1.0"
     inkscape:pageopacity="0.0"
     inkscape:pageshadow="2"
     inkscape:zoom="7.3892443"
     inkscape:cx="22.819005"
     inkscape:cy="28.249872"
     inkscape:document-units="px"
     inkscape:current-layer="g3450"
     showgrid="false"
     fit-margin-top="0"
     fit-margin-left="0"
     fit-margin-right="0"
     fit-margin-bottom="0"
     units="px"
     inkscape:window-width="1366"
     inkscape:window-height="744"
     inkscape:window-x="0"
     inkscape:window-y="24"
     inkscape:window-maximized="1" />
  <metadata
     id="metadata7">
    <rdf:RDF>
      <cc:Work
         rdf:about="">
        <dc:format>image/svg+xml</dc:format>
        <dc:type
           rdf:resource="http://purl.org/dc/dcmitype/StillImage" />
        <dc:title />
      </cc:Work>
    </rdf:RDF>
  </metadata>
  <g
     inkscape:label="Credit Card"
     inkscape:groupmode="layer"
     id="g3450"
     style="display:inline"
     transform="translate(0,-1002.3622)">
    <path
       style="fill:#000000"
       d="m 3.8479214,1040.7473 c -0.8522,-0.8523 -0.9353,-1.5589 -0.9353,-7.9549 l 0,-7.0195 22.3309996,0.1214 22.3311,0.1215 0,6.9401 c 0,6.7296 -0.034,6.9672 -1.1041,7.8334 -1.0488,0.8486 -2.1195,0.8933 -21.3957,0.8933 -19.6680996,0 -20.3203996,-0.029 -21.2269996,-0.9353 z m 24.3186996,-6.0797 c 0,-0.9041 -0.3118,-0.9353 -9.3534,-0.9353 -9.0414996,0 -9.3532996,0.031 -9.3532996,0.9353 0,0.9042 0.3118,0.9353 9.3532996,0.9353 9.0416,0 9.3534,-0.031 9.3534,-0.9353 z M 2.9197214,1019.1177 c 0.017,-3.6421 -0.093,-3.6244 22.5920996,-3.6244 22.2596,0 21.4712,-0.121 22.0912,3.3906 l 0.3096,1.7537 -22.5,0 -22.4999996,0 0.01,-1.5199 z"
       id="path3454"
       inkscape:connector-curvature="0"
       sodipodi:nodetypes="scccscscsssssscccccccc" />
  </g>
</svg>
