<?xml version="1.0" encoding="UTF-8" standalone="no"?>
<!-- Created with Inkscape (http://www.inkscape.org/) -->

<svg
   xmlns:dc="http://purl.org/dc/elements/1.1/"
   xmlns:cc="http://creativecommons.org/ns#"
   xmlns:rdf="http://www.w3.org/1999/02/22-rdf-syntax-ns#"
   xmlns:svg="http://www.w3.org/2000/svg"
   xmlns="http://www.w3.org/2000/svg"
   xmlns:sodipodi="http://sodipodi.sourceforge.net/DTD/sodipodi-0.dtd"
   xmlns:inkscape="http://www.inkscape.org/namespaces/inkscape"
   width="50.000008"
   height="50.000008"
   viewBox="0 0 50.000006 50.000006"
   id="svg2"
   version="1.1"
   inkscape:version="0.91 r13725"
   sodipodi:docname="pay.svg">
  <defs
     id="defs4" />
  <sodipodi:namedview
     id="base"
     pagecolor="#ffffff"
     bordercolor="#666666"
     borderopacity="1.0"
     inkscape:pageopacity="0.0"
     inkscape:pageshadow="2"
     inkscape:zoom="7.3892443"
     inkscape:cx="9.1504895"
     inkscape:cy="28.249872"
     inkscape:document-units="px"
     inkscape:current-layer="g3462"
     showgrid="false"
     fit-margin-top="0"
     fit-margin-left="0"
     fit-margin-right="0"
     fit-margin-bottom="0"
     units="px"
     inkscape:window-width="1366"
     inkscape:window-height="744"
     inkscape:window-x="0"
     inkscape:window-y="24"
     inkscape:window-maximized="1" />
  <metadata
     id="metadata7">
    <rdf:RDF>
      <cc:Work
         rdf:about="">
        <dc:format>image/svg+xml</dc:format>
        <dc:type
           rdf:resource="http://purl.org/dc/dcmitype/StillImage" />
        <dc:title />
      </cc:Work>
    </rdf:RDF>
  </metadata>
  <g
     inkscape:label="Pay"
     inkscape:groupmode="layer"
     id="g3462"
     style="display:inline"
     transform="translate(0,-1002.3622)">
    <path
       style="fill:#000000"
       d="m 4.0485359,1038.4563 c -0.670219,-0.6702 -0.735599,-1.226 -0.735599,-6.2525 l 0,-5.517 10.9420301,0 10.942029,0 0.04305,2.4816 c 0.0547,3.1534 1.157862,6.0918 3.126765,8.3286 l 1.490205,1.693 -12.536454,0 c -12.0460163,0 -12.5652013,-0.029 -13.2720233,-0.7356 z M 23.1741,1033.675 c 0,-0.7111 -0.24519,-0.7356 -7.355986,-0.7356 -7.1107971,0 -7.3559871,0.025 -7.3559871,0.7356 0,0.711 0.24519,0.7356 7.3559871,0.7356 7.110796,0 7.355986,-0.025 7.355986,-0.7356 z m 12.505177,5.1958 c -3.171519,-1.047 -5.140422,-2.718 -6.7214,-5.7047 -0.614166,-1.1603 -0.803421,-2.1586 -0.809894,-4.2725 -0.0074,-2.3767 0.141911,-3.0301 1.077916,-4.7199 1.981321,-3.577 4.883757,-5.3368 8.844074,-5.3622 5.908535,-0.038 10.259424,4.2446 10.242917,10.0821 -0.01559,5.5396 -3.908235,9.7315 -9.395154,10.1176 -1.275411,0.09 -2.73272,0.027 -3.238459,-0.1404 z m 3.236635,-3.0626 c 0.242747,-0.2428 0.441359,-0.735 0.441359,-1.094 0,-0.3589 0.476462,-0.899 1.058821,-1.2001 1.174986,-0.6076 1.515774,-1.2324 1.515774,-2.7789 0,-1.2965 -1.829375,-2.945 -3.268117,-2.945 -1.22189,0 -2.458843,-0.834 -2.099459,-1.4154 0.144001,-0.233 0.887515,-0.4236 1.652244,-0.4236 1.126231,0 1.470079,0.1747 1.809426,0.9195 0.464663,1.0198 1.444833,1.2227 1.773204,0.3669 0.387896,-1.0108 -0.232243,-2.3695 -1.343821,-2.9443 -0.619168,-0.3202 -1.098072,-0.8649 -1.098072,-1.2489 0,-0.8744 -0.932062,-1.6513 -1.65042,-1.3756 -0.306009,0.1174 -0.556377,0.6213 -0.556377,1.1197 0,0.5619 -0.261079,0.9892 -0.687079,1.1244 -0.942419,0.2991 -1.782561,1.2957 -2.07274,2.4587 -0.364151,1.4594 1.341614,3.1933 3.495418,3.5531 1.30869,0.2186 1.655098,0.4283 1.655098,1.0019 0,0.5728 -0.290238,0.7495 -1.379895,0.8397 -1.192259,0.099 -1.428593,-0.014 -1.737956,-0.8276 -0.403049,-1.0601 -1.639267,-1.2792 -1.994502,-0.3534 -0.33608,0.8758 0.567352,2.465 1.713562,3.0144 0.662657,0.3176 1.008094,0.7704 1.008094,1.3213 0,1.3382 0.874775,1.7778 1.765438,0.8872 z M 3.3129369,1021.3537 c 0,-0.7969 0.280234,-1.5676 0.735599,-2.0229 0.70691,-0.707 1.226007,-0.7356 13.3095981,-0.7356 l 12.573969,0 -0.940683,1.0114 c -0.517391,0.5563 -1.229421,1.4666 -1.582302,2.0229 l -0.641619,1.0115 -11.727296,0 -11.7272661,0 z"
       id="path3464"
       inkscape:connector-curvature="0"
       sodipodi:nodetypes="cscccsscsccssssscccsscsccscsscssscscscssscccssccscsccccccs" />
  </g>
</svg>
