<?xml version="1.0" encoding="UTF-8" standalone="no"?>
<!-- Created with Inkscape (http://www.inkscape.org/) -->

<svg
   xmlns:dc="http://purl.org/dc/elements/1.1/"
   xmlns:cc="http://creativecommons.org/ns#"
   xmlns:rdf="http://www.w3.org/1999/02/22-rdf-syntax-ns#"
   xmlns:svg="http://www.w3.org/2000/svg"
   xmlns="http://www.w3.org/2000/svg"
   xmlns:sodipodi="http://sodipodi.sourceforge.net/DTD/sodipodi-0.dtd"
   xmlns:inkscape="http://www.inkscape.org/namespaces/inkscape"
   width="50.000008"
   height="50.000008"
   viewBox="0 0 50.000006 50.000006"
   id="svg2"
   version="1.1"
   inkscape:version="0.91 r13725"
   sodipodi:docname="piggybank.svg">
  <defs
     id="defs4" />
  <sodipodi:namedview
     id="base"
     pagecolor="#ffffff"
     bordercolor="#666666"
     borderopacity="1.0"
     inkscape:pageopacity="0.0"
     inkscape:pageshadow="2"
     inkscape:zoom="7.3892443"
     inkscape:cx="9.1504895"
     inkscape:cy="28.249872"
     inkscape:document-units="px"
     inkscape:current-layer="g3486"
     showgrid="false"
     fit-margin-top="0"
     fit-margin-left="0"
     fit-margin-right="0"
     fit-margin-bottom="0"
     units="px"
     inkscape:window-width="1366"
     inkscape:window-height="744"
     inkscape:window-x="0"
     inkscape:window-y="24"
     inkscape:window-maximized="1" />
  <metadata
     id="metadata7">
    <rdf:RDF>
      <cc:Work
         rdf:about="">
        <dc:format>image/svg+xml</dc:format>
        <dc:type
           rdf:resource="http://purl.org/dc/dcmitype/StillImage" />
        <dc:title />
      </cc:Work>
    </rdf:RDF>
  </metadata>
  <g
     inkscape:label="Piggy Bank"
     inkscape:groupmode="layer"
     id="g3486"
     style="display:inline"
     transform="translate(0,-1002.3622)">
    <path
       style="fill:#000000"
       d="m 11.987499,1045.6965 c -0.17792,-0.6639 -0.32675,-2.0567 -0.33074,-3.0951 -0.006,-1.3965 -0.63461,-2.7231 -2.4168199,-5.096 -1.32523,-1.7644 -2.65985,-3.9569 -2.96583,-4.8723 -0.30602,-0.9154 -1.14623,-1.9331 -1.86714,-2.2616 -1.47739,-0.6731 -2.30284,-3.045 -1.50958,-4.3376 0.28885,-0.4706 1.04131,-1.0908 1.67205,-1.3782 0.63075,-0.2874 1.2891,-1.1701 1.46294,-1.9617 0.46386,-2.1119 3.5204398,-6.1638 6.0568199,-8.0291 4.66363,-3.4297 12.21008,-4.6867 17.88411,-2.9791 2.3743,0.7146 2.44052,0.6993 5.81492,-1.3411 2.78391,-1.6833 5.37368,-2.6153 5.36222,-1.9297 0,0.074 -0.60469,1.3216 -1.34105,2.773 -1.66167,3.2754 -1.65953,3.4858 0.0755,7.352 l 1.41427,3.1514 2.59003,0 c 3.23893,0 3.70055,0.727 3.70055,5.8271 0,4.5432 -0.66229,5.4378 -4.02532,5.4378 -1.90916,0 -2.40554,0.2083 -2.69877,1.1322 -0.19762,0.6227 -1.21206,2.076 -2.25427,3.2296 -1.69626,1.8776 -1.92297,2.49 -2.16282,5.8414 l -0.26782,3.7439 -3.14654,0 -3.14644,0 3.4e-4,-1.7434 3.9e-4,-1.7434 -5.76694,0.1136 -5.7669,0.1136 -0.1681,1.6298 c -0.16397,1.5902 -0.23748,1.6298 -3.02182,1.6298 -2.50605,0 -2.89321,-0.1471 -3.17726,-1.207 z m 11.73141,-29.5899 c 1.7702,0 4.06344,0.1081 5.09603,0.2432 1.60056,0.2094 1.87748,0.088 1.87748,-0.8248 0,-2.3945 -9.624,-3.2541 -12.83988,-1.147 -1.94057,1.2715 -1.273,2.7404 0.98166,2.16 0.91642,-0.236 3.11452,-0.4301 4.88471,-0.4314 z"
       id="path3488"
       inkscape:connector-curvature="0"
       sodipodi:nodetypes="ccscccscscsccscssscscccccccccsccccsssc" />
  </g>
</svg>
