<?xml version="1.0" encoding="UTF-8" standalone="no"?>
<!-- Created with Inkscape (http://www.inkscape.org/) -->

<svg
   xmlns:dc="http://purl.org/dc/elements/1.1/"
   xmlns:cc="http://creativecommons.org/ns#"
   xmlns:rdf="http://www.w3.org/1999/02/22-rdf-syntax-ns#"
   xmlns:svg="http://www.w3.org/2000/svg"
   xmlns="http://www.w3.org/2000/svg"
   xmlns:sodipodi="http://sodipodi.sourceforge.net/DTD/sodipodi-0.dtd"
   xmlns:inkscape="http://www.inkscape.org/namespaces/inkscape"
   width="50.000008"
   height="50.000008"
   viewBox="0 0 50.000006 50.000006"
   id="svg2"
   version="1.1"
   inkscape:version="0.91 r13725"
   sodipodi:docname="quickcash.svg">
  <defs
     id="defs4" />
  <sodipodi:namedview
     id="base"
     pagecolor="#ffffff"
     bordercolor="#666666"
     borderopacity="1.0"
     inkscape:pageopacity="0.0"
     inkscape:pageshadow="2"
     inkscape:zoom="7.3892443"
     inkscape:cx="9.1504895"
     inkscape:cy="28.249872"
     inkscape:document-units="px"
     inkscape:current-layer="g3494"
     showgrid="false"
     fit-margin-top="0"
     fit-margin-left="0"
     fit-margin-right="0"
     fit-margin-bottom="0"
     units="px"
     inkscape:window-width="1366"
     inkscape:window-height="744"
     inkscape:window-x="0"
     inkscape:window-y="24"
     inkscape:window-maximized="1" />
  <metadata
     id="metadata7">
    <rdf:RDF>
      <cc:Work
         rdf:about="">
        <dc:format>image/svg+xml</dc:format>
        <dc:type
           rdf:resource="http://purl.org/dc/dcmitype/StillImage" />
        <dc:title />
      </cc:Work>
    </rdf:RDF>
  </metadata>
  <g
     inkscape:label="Quickcash"
     inkscape:groupmode="layer"
     id="g3494"
     style="display:inline"
     transform="translate(0,-1002.3622)">
    <path
       style="fill:#000000"
       d="m 23.163416,1042.6136 c -0.32825,-0.1324 -0.50343,-1.0894 -0.50343,-2.7502 0,-1.9905 0.2412,-3.0121 1.10359,-4.6743 1.37021,-2.641 1.7272,-7.0222 0.79509,-9.7578 -0.37111,-1.0892 -0.46787,-1.9887 -0.25077,-2.3315 0.68435,-1.0806 0.38538,-3.091 -0.64104,-4.3108 -0.86623,-1.0295 -1.00687,-1.5944 -1.00687,-4.0442 0,-2.4032 0.1216,-2.9127 0.77904,-3.2645 1.00877,-0.5399 21.74482,-0.5615 23.1582,-0.024 l 1.03306,0.3928 0,15.0324 c 0,11.1549 -0.12466,15.1571 -0.48329,15.5157 -0.35487,0.3549 -3.53876,0.4749 -11.98172,0.4515 -6.32413,-0.017 -11.72496,-0.1232 -12.00186,-0.2349 z m 20.03666,-5.7744 0,-1.2083 -7.85357,0 -7.85356,0 0,1.2083 0,1.2082 7.85356,0 7.85357,0 z m 0,-5.2358 0,-1.2082 -7.85357,0 -7.85356,0 0,1.2082 0,1.2083 7.85356,0 7.85357,0 z m 0,-5.2357 0,-1.2082 -3.42335,0 -3.42335,0 0,1.2082 0,1.2083 3.42335,0 3.42335,0 z m -12.48515,-0.3508 c 0,-0.3883 0.5437,-1.1079 1.20824,-1.5992 2.31701,-1.7131 1.38354,-4.0004 -1.91305,-4.6878 -1.4767,-0.3079 -1.74489,-1.2092 -0.45981,-1.5452 0.58247,-0.1523 1.14509,0.097 1.79171,0.795 1.07459,1.1595 1.78939,0.9566 1.78939,-0.508 0,-0.6878 -0.37407,-1.2166 -1.19326,-1.6867 -0.65629,-0.3767 -1.2453,-1.0479 -1.30893,-1.4916 -0.15788,-1.1012 -1.29311,-1.0235 -1.45259,0.099 -0.0708,0.4984 -0.29733,0.9062 -0.50344,0.9062 -0.73654,0 -1.98573,1.6285 -1.98573,2.5886 0,1.1527 1.70809,2.6471 3.02559,2.6471 0.95657,0 1.98223,0.8992 1.5354,1.346 -0.14576,0.1458 -0.76631,0.265 -1.379,0.265 -0.77051,0 -1.19503,-0.2554 -1.37688,-0.8284 -0.33937,-1.0692 -1.56305,-0.8574 -1.72853,0.2992 -0.0849,0.5933 0.26926,1.1635 1.10756,1.7833 0.6778,0.5011 1.23234,1.2244 1.23234,1.6073 0,0.6997 0.74592,1.205 1.30893,0.8866 0.16615,-0.094 0.30206,-0.4885 0.30206,-0.8768 z m 12.48515,-4.6835 c 0,-0.995 -0.0403,-1.0069 -3.42335,-1.0069 -3.38307,0 -3.42335,0.012 -3.42335,1.0069 0,0.995 0.0403,1.0069 3.42335,1.0069 3.38307,0 3.42335,-0.012 3.42335,-1.0069 z m 0,-5.0343 0,-1.2083 -3.42335,0 -3.42335,0 0,1.2083 0,1.2082 3.42335,0 3.42335,0 z m -33.9277495,22.408 c -2.24104,-0.8364 -3.4096901,-1.712 -4.7451301,-3.5556 -3.95865004,-5.4647 -1.43787,-13.1355 4.9314901,-15.0067 1.4037195,-0.4124 1.7466295,-0.7037 1.8504795,-1.5718 0.10158,-0.8498 -0.0412,-1.0657 -0.70481,-1.0657 -0.57023,0 -0.8322695,-0.2597 -0.8322695,-0.8247 0,-0.756 0.20991,-0.8147 2.5171695,-0.7048 1.91569,0.091 2.51717,0.2642 2.51717,0.724 0,0.3323 -0.40778,0.662 -0.90618,0.7329 -0.65129,0.092 -0.90618,0.3996 -0.90618,1.0919 0,0.7941 0.30073,1.0426 1.71167,1.4145 0.94143,0.248 2.13478,0.7223 2.65191,1.0539 0.84387,0.5412 1.01624,0.5342 1.68171,-0.068 1.5508,-1.4034 3.22938,0.2458 1.82718,1.7952 -0.60811,0.672 -0.59503,0.8278 0.17982,2.141 2.5154,4.2633 0.73803,10.331 -3.80631,12.9941 -2.22813,1.3058 -5.74175,1.6806 -7.9677195,0.8499 z m 7.4253995,-2.9091 c 3.47232,-2.4531 4.3611,-6.8498 2.11554,-10.4656 -1.53929,-2.4787 -3.62958,-3.6008 -6.67412,-3.583 -6.4925096,0.038 -9.9068296,7.7077 -5.6717695,12.7408 2.49877,2.9696 7.0538295,3.5519 10.2303495,1.3078 z m -5.14569,-5.9462 c -0.1147,-0.2989 -0.1543,-1.7941 -0.0881,-3.3226 0.1071,-2.4707 0.20995,-2.7793 0.92597,-2.7793 0.63405,0 0.84837,0.3356 1.00686,1.5768 0.17934,1.4042 0.26192,1.5035 0.75414,0.9062 0.69685,-0.8455 1.61385,-0.8629 1.93093,-0.037 0.15826,0.4126 -0.36789,1.2568 -1.50612,2.4165 -1.80047,1.8346 -2.66006,2.1868 -3.02372,1.2391 z"
       id="path3496"
       inkscape:connector-curvature="0"
       sodipodi:nodetypes="csscccscccsscccccccccccccccccccccccccccccscscssccssssssccsscsssssscccccccccssscsscscscsccscssscssccscccscc" />
  </g>
</svg>
